<svg version="1.1" preserveAspectRatio="none" xmlns="http://www.w3.org/2000/svg" width="500" height="500" viewBox="0 0 500 500"><rect width="100%" height="100%" fill="#212D94" fill-opacity="1"/><svg viewBox="111.9433 458.0979 489.2622 240" width="333" height="163.3479962277895" x="83.5px" y="168.326px" xmlns="http://www.w3.org/2000/svg" xmlns:xlink="http://www.w3.org/1999/xlink" preserveAspectRatio="none"><defs></defs><style>.a60p5ZquTEfillColor {fill:#F1F1F1;fill-opacity:0;}.ahs7pIl34ofillColor {fill:#0A0A0A;fill-opacity:0.1;}.background {fill:#212D94;fill-opacity:1;}.companyName {fill:#F1F1F1;fill-opacity:1;}.icon3-str {stroke:#0A0A0A;stroke-opacity:1;}.shapeStroke-str {stroke:#0A0A0A;stroke-opacity:1;}.text-str {stroke:#F1F1F1;stroke-opacity:1;}</style><g opacity="1" transform="rotate(0 111.9433 458.0979)">
<svg width="244.6311" height="240" x="111.9433" y="458.0979" version="1.1" preserveAspectRatio="none" viewBox="0 0 244.6311 240">
  <defs><rect x="15" y="15" width="214.6311" height="210" rx="0px" ry="0px" id="id-60p5ZquTE1715407352023"></rect></defs><use class="a60p5ZquTEfillColor text-str" style="stroke-width:30;" xlink:href="#id-60p5ZquTE1715407352023"></use>
</svg>
</g><g opacity="1" transform="rotate(0 356.5744 458.0979)">
<svg width="244.6311" height="240" x="356.5744" y="458.0979" version="1.1" preserveAspectRatio="none" viewBox="0 0 244.6311 240">
  <defs><rect x="15" y="15" width="214.6311" height="210" rx="0px" ry="0px" id="id-hs7pIl34o1715407352023"></rect></defs><use class="ahs7pIl34ofillColor icon3-str" style="stroke-width:30;" xlink:href="#id-hs7pIl34o1715407352023"></use>
</svg>
</g><g opacity="1" transform="rotate(0 121.9433 468.0979)">
<svg width="469.2622" height="220" x="121.9433" y="468.0979" version="1.1" preserveAspectRatio="none" viewBox="0 0 469.2622 220">
  <defs><rect x="0" y="0" width="469.2622" height="220" rx="0px" ry="0px" id="id-BO9lbzKc31715407352024"></rect></defs><use class="background shapeStroke-str" style="stroke-width:0;" xlink:href="#id-BO9lbzKc31715407352024"></use>
</svg>
</g><g opacity="1" transform="rotate(0 161.9433 518.0979)">
<svg width="389.2622" height="120" x="161.9433" y="518.0979" version="1.1" preserveAspectRatio="none" viewBox="4 -30.4 100.03999999999999 30.84">
  <g transform="matrix(1 0 0 1 0 0)" class="companyName"><path id="id-D6z1nYkh3" d="M33.32-30.16L33.40-30.16L33.40 0L28.76 0L28.76-16.84L18.56-2.36L18.48-2.36L8.52-16.16L8.52 0L4 0L4-30.16L4.04-30.16L18.56-9.60L33.32-30.16Z M67 0L61.60 0L59.28-3.08Q58-1.48 55.94-0.52Q53.88 0.44 51.16 0.44L51.16 0.44Q48.44 0.44 46.24-0.70Q44.04-1.84 42.76-3.84Q41.48-5.84 41.48-8.32L41.48-8.32Q41.48-11.36 43.60-13.68Q45.72-16 48.88-16.92L48.88-16.92L48.08-18Q45.88-21.24 45.88-23.68L45.88-23.68Q45.88-25.36 46.74-26.92Q47.60-28.48 49.26-29.44Q50.92-30.40 53.20-30.40L53.20-30.40Q55.60-30.40 57.62-29.42Q59.64-28.44 60.96-26.92L60.96-26.92L58.64-23.84Q57.28-25.12 56.14-25.80Q55-26.48 53.96-26.48L53.96-26.48Q52.44-26.48 51.56-25.56Q50.68-24.64 50.68-23.28L50.68-23.28Q50.68-22.12 51.32-21.06Q51.96-20 52-19.96L52-19.96L58.76-10.96L61.20-17.36L65.48-17.36L61.52-7.28L67 0ZM51.80-3.72Q55.24-3.72 56.84-6.32L56.84-6.32L51.32-13.72Q49.24-13.52 47.78-12.04Q46.32-10.56 46.32-8.56L46.32-8.56Q46.32-6.44 47.90-5.08Q49.48-3.72 51.80-3.72L51.80-3.72Z M103.96-30.16L104.04-30.16L104.04 0L99.40 0L99.40-16.84L89.20-2.36L89.12-2.36L79.16-16.16L79.16 0L74.64 0L74.64-30.16L74.68-30.16L89.20-9.60L103.96-30.16Z"/></g>
</svg>
</g></svg></svg>